<?xml version="1.0" encoding="utf-8"?>
<!-- Generator: Adobe Illustrator 15.0.0, SVG Export Plug-In . SVG Version: 6.00 Build 0)  -->
<!DOCTYPE svg PUBLIC "-//W3C//DTD SVG 1.1//EN" "http://www.w3.org/Graphics/SVG/1.1/DTD/svg11.dtd">
<svg version="1.1" id="Layer_1" xmlns="http://www.w3.org/2000/svg" xmlns:xlink="http://www.w3.org/1999/xlink" x="0px" y="0px"
	 viewBox="0 0 64 64" enable-background="new 0 0 64 64" xml:space="preserve">
<g>
	<path d="M49.544,25.652c-2.439-4.356-7.244-6.855-12.396-6.032c-2.023-4.246-6.253-6.942-11.011-6.942
		c-6.734,0-12.213,5.479-12.213,12.216c0,0.277,0.011,0.563,0.036,0.862C8.146,27.08,3.883,32.328,3.883,38.372
		c0,7.139,5.81,12.95,12.952,12.95h9.596h0.642h20.093c7.143,0,12.952-5.812,12.952-12.95
		C60.117,32.155,55.609,26.783,49.544,25.652z M39.897,43.454l-6.103,6.103c-0.467,0.468-1.115,0.734-1.777,0.734l-0.244-0.009
		c-0.59-0.047-1.14-0.3-1.566-0.722l-6.106-6.107c-0.475-0.474-0.737-1.106-0.737-1.778s0.262-1.303,0.738-1.777
		c0.946-0.949,2.605-0.951,3.554,0.001l1.846,1.846v-13.42c0-1.387,1.128-2.515,2.515-2.515c1.386,0,2.515,1.128,2.515,2.515v13.384
		l1.81-1.81c0.949-0.952,2.606-0.952,3.556,0c0.475,0.474,0.737,1.104,0.737,1.776S40.373,42.979,39.897,43.454z"/>
</g>
</svg>
